<?xml version="1.0" standalone="no"?>
<!DOCTYPE svg PUBLIC "-//W3C//DTD SVG 20010904//EN"
 "http://www.w3.org/TR/2001/REC-SVG-20010904/DTD/svg10.dtd">
<svg version="1.0" xmlns="http://www.w3.org/2000/svg"
 width="1000.000000pt" height="1000.000000pt" viewBox="0 0 1000.000000 1000.000000"
 preserveAspectRatio="xMidYMid meet">

<g transform="translate(0.000000,1000.000000) scale(0.100000,-0.100000)"
fill="#000000" stroke="none">
<path d="M3440 7220 c0 -5 -11 -10 -25 -10 -18 0 -25 -5 -25 -20 0 -11 -4 -20
-10 -20 -7 0 -10 -355 -10 -1044 l0 -1045 38 -3 c31 -3 37 -7 36 -26 l-1 -22
486 5 c1328 14 1583 15 1599 5 11 -6 -174 -9 -556 -10 l-573 0 -14 -33 c-9
-23 -12 -61 -10 -123 2 -49 1 -104 -2 -122 -5 -32 -7 -33 -47 -31 -22 1 -80 1
-128 0 -79 -1 -88 -3 -88 -20 0 -21 -19 -31 -56 -31 -17 0 -22 -4 -17 -15 4
-11 -4 -19 -26 -28 -28 -10 -31 -16 -31 -53 0 -37 -3 -43 -22 -46 -21 -3 -23
-9 -26 -75 l-3 -73 1030 0 c814 0 1030 3 1034 13 4 9 8 8 16 -3 8 -11 11 -1
11 43 0 55 -1 57 -26 57 -21 0 -25 4 -23 28 4 49 -1 61 -23 64 -15 2 -24 11
-26 26 -2 14 -10 22 -23 22 -12 0 -19 7 -19 19 0 14 -8 21 -27 23 -20 2 -28 9
-28 23 0 19 -8 20 -129 25 l-129 5 2 132 c1 81 -2 140 -9 152 l-11 21 497 0
c417 0 495 2 491 14 -8 20 13 36 45 36 27 0 28 2 28 45 0 25 5 45 10 45 7 0
10 332 10 975 0 643 -3 975 -10 975 -5 0 -10 20 -10 45 0 41 -2 45 -25 45 -14
0 -25 5 -25 10 0 7 -527 10 -1560 10 -1033 0 -1560 -3 -1560 -10z m2895 -1005
l0 -725 -1337 0 -1338 0 0 725 0 725 1338 0 1337 0 0 -725z"/>
<path d="M4735 6881 c10 -18 -33 -31 -100 -31 -53 0 -66 -3 -62 -14 8 -21 -13
-36 -50 -36 -26 0 -33 -4 -33 -20 0 -15 -7 -20 -29 -20 -23 0 -30 -5 -33 -22
-2 -15 -12 -25 -28 -28 -14 -3 -25 -12 -25 -20 0 -8 -10 -16 -23 -18 -16 -3
-22 -8 -18 -19 4 -9 -1 -17 -14 -20 -13 -3 -20 -14 -20 -28 0 -17 -7 -25 -22
-27 -20 -3 -28 -19 -30 -58 -1 -21 -18 -41 -29 -34 -5 3 -9 -13 -9 -34 0 -71
-11 -104 -31 -99 -18 5 -19 -3 -18 -151 1 -87 3 -149 6 -139 12 45 43 -16 43
-84 0 -32 3 -39 20 -39 17 0 20 -7 20 -45 0 -41 2 -45 25 -45 18 0 25 -5 25
-19 0 -10 9 -21 20 -24 12 -3 20 -14 20 -26 0 -12 6 -21 15 -21 9 0 20 -11 25
-24 5 -14 19 -26 32 -28 13 -2 23 -10 23 -18 0 -9 12 -17 30 -20 22 -4 30 -11
30 -25 0 -17 8 -21 50 -25 40 -4 50 -9 49 -22 -2 -16 8 -18 65 -18 36 -1 80
-7 96 -14 l30 -14 -25 -10 c-20 -9 -8 -11 65 -11 60 -1 85 2 75 9 -30 18 8 34
95 40 47 3 85 8 85 13 0 4 0 12 0 17 0 6 20 10 45 10 37 0 45 3 45 19 0 20 18
31 51 31 12 0 19 7 19 19 0 13 8 21 23 23 12 2 23 9 23 16 1 6 2 17 3 22 0 6
10 10 20 10 13 0 21 8 23 23 2 14 11 23 25 25 16 2 23 12 28 43 4 22 13 43 21
46 8 3 14 14 14 24 0 10 4 19 9 19 5 0 6 -20 3 -45 -4 -43 -4 -45 22 -45 24 0
26 -3 26 -45 0 -39 3 -45 20 -45 12 0 24 -10 29 -24 5 -13 19 -26 30 -29 12
-3 21 -12 21 -20 0 -8 13 -17 30 -20 21 -5 30 -12 30 -26 0 -23 46 -33 105
-23 l40 7 0 65 0 65 -67 3 c-60 3 -68 5 -68 22 0 13 -7 20 -19 20 -20 0 -35
25 -25 41 3 5 -6 9 -21 9 -24 0 -25 3 -23 43 3 37 0 42 -19 45 -20 3 -23 10
-24 58 -1 30 -2 60 -3 67 -1 6 9 13 21 15 15 2 23 12 26 30 l4 27 2 -26 c0
-17 8 -28 21 -32 18 -5 20 -14 20 -77 l0 -73 71 7 c65 6 71 5 76 -14 5 -17 14
-20 64 -20 l59 0 0 65 c0 58 -2 65 -19 65 -25 0 -36 17 -22 34 7 8 9 31 5 60
l-7 46 -62 0 c-59 0 -96 16 -78 33 3 4 -21 7 -55 7 -59 0 -61 -1 -65 -27 -2
-16 -5 5 -6 45 -1 70 -2 72 -26 72 -26 0 -26 1 -23 68 3 63 5 67 26 66 15 0
22 5 21 15 -5 56 2 81 21 81 12 0 20 6 19 13 -3 27 2 37 20 37 10 0 21 9 24
20 4 16 14 20 51 20 l46 0 0 70 0 70 -60 0 c-44 0 -60 -4 -60 -14 0 -7 -7 -19
-15 -26 -8 -6 -14 -15 -13 -18 3 -24 -6 -32 -32 -32 -24 0 -33 -6 -42 -27 -6
-16 -10 -34 -9 -41 1 -8 -7 -16 -18 -19 -14 -3 -21 -14 -21 -29 0 -14 -6 -24
-14 -24 -7 0 -18 -18 -23 -42 l-11 -43 -1 60 c-1 38 -4 55 -10 46 -5 -7 -14
-10 -20 -7 -6 4 -9 11 -6 16 3 5 1 11 -5 15 -5 3 -10 15 -10 25 0 12 -8 20
-22 22 -15 2 -24 11 -26 26 -2 14 -10 22 -23 22 -12 0 -19 7 -19 19 0 13 -8
21 -22 23 -15 2 -24 11 -26 25 -2 16 -11 23 -35 25 -23 2 -32 8 -31 21 1 13
-6 17 -28 17 -16 0 -38 5 -49 11 -16 8 -18 13 -8 25 10 12 1 14 -62 14 -76 0
-107 10 -95 29 5 8 -24 11 -99 11 -65 0 -104 -4 -100 -9z m222 -191 c4 -16 14
-20 53 -20 48 0 78 -18 65 -40 -4 -6 6 -10 25 -10 23 0 33 -5 37 -19 2 -10 16
-24 30 -30 16 -7 23 -17 19 -26 -3 -9 0 -15 9 -15 14 0 19 -12 16 -32 0 -5 8
-8 19 -8 20 0 24 -9 21 -42 -2 -12 3 -16 13 -12 24 9 36 -36 36 -132 0 -62 3
-83 13 -82 19 4 22 -51 3 -58 -12 -5 -16 -21 -16 -70 0 -50 -3 -64 -15 -64 -9
0 -12 -6 -9 -15 4 -8 2 -15 -4 -15 -6 0 -13 6 -15 13 -3 6 -6 -7 -6 -30 -1
-36 -4 -43 -21 -43 -13 0 -20 -7 -20 -20 0 -11 -5 -20 -10 -20 -6 0 -15 -11
-20 -25 -6 -15 -17 -25 -30 -25 -13 0 -20 -7 -20 -19 0 -20 -18 -31 -52 -31
-12 0 -18 -3 -15 -7 17 -17 -19 -33 -74 -33 -46 0 -57 -3 -53 -14 3 -8 1 -17
-5 -21 -15 -9 -161 -10 -188 -1 -27 9 -30 23 -5 29 9 3 -16 5 -56 6 -65 1 -75
3 -79 21 -3 13 -17 22 -39 26 -24 4 -34 12 -34 25 0 14 -7 19 -25 19 -20 0
-25 5 -25 25 0 18 -5 25 -20 25 -11 0 -20 7 -20 15 0 25 -29 75 -44 75 -10 0
-12 13 -8 49 4 46 3 49 -15 45 -25 -7 -33 26 -33 131 0 105 8 138 32 132 18
-5 19 -1 16 41 -3 42 -1 47 20 50 19 3 22 9 22 48 0 39 2 44 23 44 18 0 23 5
23 23 -1 16 5 23 22 25 14 2 22 10 22 23 0 16 7 19 40 19 32 0 38 3 33 16 -8
22 14 34 68 34 38 0 48 4 52 20 5 19 14 20 122 20 108 0 117 -1 122 -20z"/>
<path d="M4790 6560 c0 -13 -7 -20 -20 -20 -17 0 -20 -7 -20 -50 0 -43 -3 -50
-20 -50 -16 0 -20 -7 -20 -32 0 -18 -3 -50 -7 -71 -5 -31 -9 -38 -24 -34 -17
5 -19 -1 -19 -44 0 -42 -3 -49 -20 -49 -24 0 -35 -36 -26 -90 5 -35 4 -39 -16
-42 -22 -3 -23 -8 -26 -90 l-3 -88 65 0 64 0 7 40 c7 44 22 60 36 39 6 -9 9 7
9 44 0 31 4 57 9 57 5 0 11 9 14 20 4 17 14 20 65 20 56 0 92 -16 75 -33 -3
-4 -1 -7 5 -7 8 0 12 -18 12 -49 0 -43 2 -49 19 -44 15 4 20 -3 25 -41 l7 -46
65 0 64 0 0 86 c0 77 -2 86 -20 91 -16 4 -20 15 -22 67 -3 55 -5 61 -25 64
-20 3 -23 9 -23 47 0 34 -4 44 -19 48 -17 4 -20 15 -23 68 -3 58 -5 64 -25 67
-21 3 -23 9 -23 57 0 42 -3 53 -14 49 -8 -3 -16 3 -19 15 -4 18 -13 21 -56 21
-44 0 -51 -3 -51 -20z"/>
</g>
</svg>
