<?xml version="1.0" standalone="no"?>
<!DOCTYPE svg PUBLIC "-//W3C//DTD SVG 20010904//EN"
 "http://www.w3.org/TR/2001/REC-SVG-20010904/DTD/svg10.dtd">
<svg version="1.0" xmlns="http://www.w3.org/2000/svg"
 width="1000.000000pt" height="1000.000000pt" viewBox="0 0 1000.000000 1000.000000"
 preserveAspectRatio="xMidYMid meet">

<g transform="translate(0.000000,1000.000000) scale(0.100000,-0.100000)"
fill="#000000" stroke="none">
<path d="M3679 7023 c-1 -5 -1 -11 0 -15 0 -5 -7 -8 -18 -8 -10 0 -30 -9 -44
-20 -14 -11 -32 -20 -41 -20 -26 0 -96 -70 -96 -95 0 -12 -7 -39 -15 -58 -13
-32 -15 -235 -15 -1616 0 -942 4 -1582 9 -1585 5 -4 12 -25 16 -48 6 -33 19
-53 57 -90 28 -27 54 -48 59 -48 5 0 9 -7 9 -15 0 -13 117 -15 990 -15 859 0
990 2 990 15 0 8 17 28 38 45 21 16 50 54 65 83 l27 54 0 466 c0 452 1 468 20
487 11 11 32 22 47 26 16 3 53 12 84 20 31 8 82 14 113 14 60 0 231 27 256 40
9 5 49 11 90 15 41 3 119 11 173 17 89 9 100 13 109 34 9 19 8 32 -5 59 -9 19
-21 35 -26 35 -5 0 -14 15 -21 34 -6 18 -19 41 -30 51 -11 10 -25 34 -31 54
-7 20 -22 46 -34 59 -13 12 -26 35 -30 50 -3 15 -15 36 -25 47 -10 11 -26 42
-35 68 -15 45 -15 52 0 90 9 22 27 54 41 70 22 26 24 37 24 125 0 103 0 102
-67 196 -21 29 -41 43 -80 56 -29 9 -59 22 -67 29 -9 8 -43 11 -94 9 -83 -3
-112 8 -112 42 0 9 -9 25 -21 36 -12 10 -30 37 -41 59 -11 22 -26 47 -33 55
-7 8 -16 26 -20 40 -4 14 -20 43 -36 64 -16 22 -29 47 -29 55 0 8 -11 26 -24
40 -13 15 -33 41 -43 60 -23 41 -37 48 -55 26 -7 -9 -25 -28 -40 -42 -16 -15
-28 -31 -28 -36 0 -5 -18 -31 -41 -56 -72 -80 -76 -86 -89 -111 -7 -14 -21
-31 -32 -38 -10 -7 -18 -18 -18 -23 0 -6 -16 -29 -35 -52 -122 -147 -153 -187
-180 -227 -26 -38 -77 -102 -190 -235 -14 -16 -25 -35 -25 -41 0 -7 -11 -19
-25 -28 -14 -9 -25 -22 -25 -29 0 -11 -33 -53 -88 -112 -33 -35 -100 -85 -115
-85 -7 0 -24 -11 -37 -24 -12 -14 -36 -28 -51 -31 -16 -4 -42 -17 -57 -29 -15
-12 -43 -29 -62 -36 -19 -8 -43 -25 -53 -37 -10 -13 -27 -23 -37 -23 -11 0
-28 -12 -37 -28 -10 -15 -26 -34 -37 -42 -27 -24 -68 -146 -73 -221 -4 -55 0
-76 21 -127 14 -34 26 -68 26 -75 0 -8 16 -28 35 -46 19 -17 35 -36 35 -42 0
-5 21 -19 48 -30 26 -11 54 -26 62 -33 60 -50 250 -45 308 8 34 30 102 29 136
-3 14 -14 26 -34 26 -46 0 -12 11 -37 25 -56 54 -74 67 -125 39 -153 -14 -14
-97 -16 -764 -16 -697 0 -749 1 -769 18 l-21 17 -6 1171 c-5 1034 -4 1176 10
1208 l15 36 1025 0 1026 0 15 -36 c13 -31 18 -35 47 -32 l33 3 3 195 c3 222 0
249 -32 287 -13 15 -25 37 -27 47 -3 12 -16 23 -37 28 -18 5 -47 18 -65 28
-18 11 -40 20 -50 20 -9 0 -16 6 -15 13 2 9 -184 13 -899 15 -497 1 -904 -1
-904 -5z m1862 -124 c85 -61 88 -69 89 -201 0 -105 -2 -120 -20 -138 -20 -20
-33 -20 -1025 -20 -979 0 -1005 0 -1024 19 -24 24 -36 95 -28 170 9 82 31 127
76 156 22 13 42 29 46 35 4 7 299 10 924 10 l918 0 44 -31z m231 -882 c16 -18
31 -43 34 -57 4 -14 20 -40 35 -58 16 -18 32 -45 35 -60 4 -15 15 -36 24 -47
10 -11 25 -36 35 -55 10 -19 23 -42 30 -50 7 -8 18 -32 24 -52 7 -20 19 -42
28 -50 9 -7 24 -31 34 -54 10 -22 27 -49 39 -59 11 -10 20 -26 20 -35 0 -10
14 -34 30 -55 17 -21 30 -46 30 -56 0 -9 10 -30 23 -46 13 -15 29 -42 36 -60
7 -17 23 -41 37 -54 13 -12 24 -33 24 -45 0 -13 14 -38 30 -56 17 -18 30 -40
30 -49 0 -9 8 -23 19 -33 10 -9 27 -36 37 -59 10 -23 28 -55 41 -70 13 -16 23
-41 23 -56 0 -45 -26 -59 -121 -67 l-85 -6 -37 32 c-20 18 -37 40 -37 50 0 10
-11 31 -24 47 -13 15 -29 46 -37 68 -7 22 -23 51 -36 66 -13 14 -23 30 -23 36
0 6 -11 24 -24 40 -13 15 -27 39 -31 53 -4 14 -21 40 -36 58 -16 18 -32 45
-35 60 -4 15 -17 41 -29 57 -13 17 -26 41 -30 55 -4 14 -18 38 -31 53 -13 16
-24 35 -24 42 0 7 -11 27 -25 43 -14 17 -32 46 -40 64 -7 19 -21 40 -29 47 -8
7 -20 29 -27 49 -6 20 -20 45 -31 56 -10 11 -21 32 -25 46 -3 14 -19 39 -35
56 -51 54 -47 148 8 172 13 7 24 20 24 31 0 28 39 53 70 46 14 -3 37 -20 52
-38z m-220 -244 c10 -9 18 -26 18 -38 0 -12 13 -39 29 -59 17 -21 35 -53 41
-72 6 -19 16 -34 21 -34 5 0 17 -17 26 -37 10 -21 28 -51 40 -66 13 -16 23
-38 23 -49 0 -11 14 -36 30 -55 17 -18 30 -42 30 -52 0 -10 16 -38 35 -62 19
-24 35 -49 35 -56 0 -7 11 -24 25 -39 14 -15 25 -34 25 -43 0 -9 14 -34 30
-55 17 -22 30 -47 30 -56 0 -8 13 -31 29 -50 15 -19 32 -46 36 -60 4 -14 17
-36 30 -50 28 -30 49 -93 40 -119 -8 -25 -55 -41 -123 -41 -30 0 -71 -4 -91
-9 -20 -6 -63 -17 -97 -25 -33 -9 -83 -16 -110 -16 -90 0 -258 -22 -326 -42
-37 -11 -78 -18 -91 -14 -24 6 -97 107 -111 153 -4 12 -20 38 -36 58 -17 21
-30 43 -30 50 0 7 -7 19 -17 26 -9 8 -27 37 -40 64 -13 28 -39 76 -59 107
l-35 58 16 47 c15 44 30 65 118 167 20 24 37 45 37 48 0 2 22 29 50 59 27 30
50 60 50 66 0 7 32 50 70 95 39 46 80 94 91 107 12 14 25 35 30 48 10 26 64
63 93 63 11 0 28 -7 38 -17z m661 -123 c14 -11 30 -20 36 -20 7 0 32 -21 56
-47 l45 -48 0 -78 c0 -43 -5 -87 -10 -98 -11 -19 -55 -26 -75 -11 -20 14 -75
96 -75 111 0 9 -16 34 -35 55 -29 33 -35 47 -35 84 0 68 42 92 93 52z m-1311
-627 c8 -10 19 -30 26 -45 6 -16 16 -28 21 -28 5 0 16 -19 26 -42 9 -24 24
-52 33 -63 24 -28 42 -62 42 -78 0 -8 9 -22 20 -32 11 -10 20 -24 20 -32 0 -7
13 -27 30 -44 54 -57 50 -142 -7 -155 -15 -4 -39 -17 -53 -29 -14 -12 -37 -25
-51 -28 -14 -4 -43 -20 -64 -37 -21 -16 -45 -30 -53 -30 -8 0 -31 -12 -51 -27
-33 -26 -43 -28 -131 -28 -87 0 -99 2 -129 25 -75 57 -120 102 -132 133 -7 17
-18 39 -26 48 -7 9 -16 39 -20 67 -4 41 -1 60 21 105 14 31 30 67 35 80 11 27
109 106 158 126 18 7 38 20 44 28 7 8 28 21 48 29 19 8 44 22 54 32 42 38 116
51 139 25z m712 -498 c20 -21 26 -90 23 -298 -2 -176 -2 -179 -26 -198 -18
-15 -36 -19 -69 -17 -40 3 -47 6 -55 32 -7 22 -6 36 8 58 15 27 16 31 1 47 -9
9 -19 33 -22 52 -4 19 -17 45 -29 59 -12 14 -27 39 -34 57 -7 17 -23 41 -36
53 -43 40 -44 109 -3 131 67 36 215 51 242 24z m-354 -107 c11 -18 20 -40 20
-49 0 -8 11 -26 24 -39 14 -12 28 -35 31 -51 3 -15 17 -34 29 -43 42 -27 41
-146 -1 -146 -10 0 -29 -9 -43 -20 -51 -40 -111 -14 -145 64 -13 28 -30 58
-38 65 -9 7 -18 25 -22 39 -3 15 -16 32 -28 37 -23 11 -34 57 -23 101 9 33 86
71 149 73 21 1 32 -7 47 -31z m347 -502 l28 -24 0 -151 0 -151 -53 -52 -52
-53 -848 -3 c-466 -2 -893 -1 -949 3 -96 6 -103 9 -136 38 -52 49 -61 83 -61
235 l0 134 27 24 28 24 994 0 994 0 28 -24z"/>
<path d="M4299 6754 c-9 -11 -10 -20 -2 -32 9 -15 40 -17 294 -17 l284 0 0 30
0 30 -281 3 c-248 2 -283 0 -295 -14z"/>
<path d="M4560 3705 c0 -34 27 -43 52 -17 25 25 16 42 -23 42 -24 0 -29 -4
-29 -25z"/>
<path d="M6379 6231 c-23 -24 -29 -38 -29 -75 0 -24 -4 -56 -10 -70 -11 -31 3
-76 24 -76 24 0 55 49 61 98 3 26 10 61 16 79 7 24 7 37 -3 52 -17 28 -24 26
-59 -8z"/>
<path d="M3773 6173 c-18 -7 -16 -28 3 -47 14 -14 74 -16 513 -16 526 0 538 1
529 46 -3 18 -18 19 -518 21 -283 1 -521 -1 -527 -4z"/>
<path d="M6964 5965 c-15 -14 -34 -25 -44 -25 -9 0 -27 -11 -40 -25 -12 -13
-39 -30 -59 -36 -20 -6 -50 -22 -68 -35 -17 -13 -38 -24 -45 -24 -28 0 -58
-31 -58 -60 0 -16 4 -31 9 -34 12 -8 125 30 129 43 2 6 23 19 47 30 24 10 52
28 64 40 12 12 29 21 40 21 18 0 121 77 121 91 0 14 -32 39 -50 39 -11 0 -31
-11 -46 -25z"/>
<path d="M3775 5830 c-17 -18 -17 -21 -1 -45 l16 -25 343 0 c294 0 346 2 365
16 26 18 28 37 6 58 -13 14 -60 16 -363 16 -334 0 -349 -1 -366 -20z"/>
<path d="M4753 5833 c-20 -7 -15 -41 6 -53 23 -12 47 -5 55 17 12 30 -24 51
-61 36z"/>
<path d="M3772 5498 c-32 -32 2 -79 43 -60 30 14 32 33 7 55 -22 20 -34 21
-50 5z"/>
<path d="M4039 5491 c-20 -16 -22 -23 -13 -38 10 -17 32 -18 304 -18 268 0
294 1 304 18 8 12 8 22 0 35 -10 15 -37 17 -291 20 -266 2 -282 1 -304 -17z"/>
<path d="M6760 5383 c-40 -14 -46 -63 -9 -63 11 0 39 -10 62 -22 72 -37 179
-44 191 -13 9 25 -19 45 -79 56 -33 6 -76 19 -97 30 -39 20 -44 21 -68 12z"/>
</g>
</svg>
