<?xml version="1.0" standalone="no"?>
<!DOCTYPE svg PUBLIC "-//W3C//DTD SVG 20010904//EN"
 "http://www.w3.org/TR/2001/REC-SVG-20010904/DTD/svg10.dtd">
<svg version="1.0" xmlns="http://www.w3.org/2000/svg"
 width="1000.000000pt" height="1000.000000pt" viewBox="0 0 1000.000000 1000.000000"
 preserveAspectRatio="xMidYMid meet">

<g transform="translate(0.000000,1000.000000) scale(0.100000,-0.100000)"
fill="#000000" stroke="none">
<path d="M4745 6251 c-58 -15 -106 -44 -136 -82 -37 -47 -57 -58 -124 -73 -57
-13 -75 -37 -75 -102 0 -59 18 -104 47 -115 13 -5 192 -9 398 -9 440 0 416 -6
423 104 6 85 -10 111 -70 121 -60 10 -88 27 -127 75 -48 60 -105 82 -216 86
-49 2 -103 0 -120 -5z"/>
<path d="M4223 6013 c-13 -2 -32 -16 -43 -30 -19 -25 -20 -39 -20 -472 l0
-446 -162 -86 c-184 -98 -181 -94 -240 -267 -54 -161 -77 -270 -84 -414 l-7
-138 165 0 166 0 6 44 c6 40 13 49 64 86 62 45 122 120 198 243 26 43 73 106
104 140 72 79 76 92 45 123 -18 18 -35 24 -67 24 -52 0 -70 -11 -169 -107 -75
-72 -103 -85 -127 -61 -48 48 57 194 183 254 28 13 58 24 68 24 16 0 17 33 17
545 l0 545 -37 -1 c-21 -1 -48 -4 -60 -6z"/>
<path d="M5370 5552 l0 -471 31 11 c29 10 75 7 112 -7 16 -7 17 18 17 437 l0
445 -25 23 c-18 17 -40 25 -80 28 l-55 4 0 -470z"/>
<path d="M4645 5620 c-33 -33 -64 -60 -71 -60 -6 0 -19 9 -29 20 -17 19 -17
20 6 39 l24 20 -42 1 c-63 0 -73 -16 -73 -120 0 -116 4 -120 119 -120 105 0
121 11 121 81 l0 44 -20 -25 c-11 -14 -20 -33 -20 -42 0 -16 -11 -18 -80 -18
l-80 0 0 45 c0 48 11 57 32 27 31 -44 48 -37 130 49 43 45 78 90 78 101 0 34
-35 19 -95 -42z"/>
<path d="M4800 5520 l0 -29 215 -3 215 -3 0 33 0 32 -215 0 -215 0 0 -30z"/>
<path d="M4476 5284 c-12 -12 -16 -37 -16 -104 0 -116 4 -120 119 -120 115 0
121 6 121 123 0 113 -4 117 -120 117 -67 0 -92 -4 -104 -16z m174 -104 l0 -70
-70 0 -70 0 0 70 0 70 70 0 70 0 0 -70z"/>
<path d="M4800 5180 l0 -30 215 0 215 0 0 30 0 30 -215 0 -215 0 0 -30z"/>
<path d="M5432 4981 c-11 -6 -6 -19 22 -58 36 -51 46 -83 24 -83 -6 0 -39 27
-74 60 -65 63 -93 73 -125 44 -16 -14 -14 -19 32 -80 44 -59 62 -104 41 -104
-4 0 -41 34 -82 75 -78 79 -106 91 -141 59 -17 -15 -15 -20 47 -93 61 -73 84
-114 70 -128 -4 -4 -75 61 -159 145 -98 98 -160 152 -173 152 -31 0 -68 -44
-60 -72 4 -13 74 -95 156 -182 141 -150 148 -160 135 -180 -20 -28 -19 -89 3
-114 33 -40 147 -125 199 -149 29 -13 92 -35 140 -48 84 -23 90 -27 141 -84
l53 -61 145 132 144 132 -63 66 c-55 56 -68 77 -91 145 -16 44 -41 100 -56
125 -30 47 -290 310 -306 310 -5 0 -15 -4 -22 -9z"/>
<path d="M4472 4948 c-18 -18 -15 -38 11 -58 22 -18 22 -18 27 3 5 20 12 22
70 22 l65 0 3 -67 3 -68 -49 0 c-45 0 -50 -2 -54 -25 -5 -25 -4 -25 63 -25 84
0 89 7 89 115 0 113 -2 115 -118 115 -63 0 -102 -4 -110 -12z"/>
<path d="M4353 4465 l-41 -65 359 0 359 0 -7 28 c-5 15 -7 44 -6 65 l1 37
-311 0 -312 0 -42 -65z"/>
</g>
</svg>
