<?xml version="1.0" standalone="no"?>
<!DOCTYPE svg PUBLIC "-//W3C//DTD SVG 20010904//EN"
 "http://www.w3.org/TR/2001/REC-SVG-20010904/DTD/svg10.dtd">
<svg version="1.0" xmlns="http://www.w3.org/2000/svg"
 width="1000.000000pt" height="1000.000000pt" viewBox="0 0 1000.000000 1000.000000"
 preserveAspectRatio="xMidYMid meet">

<g transform="translate(0.000000,1000.000000) scale(0.100000,-0.100000)"
fill="#000000" stroke="none">
<path d="M3940 6581 l-35 -6 -3 -527 c-2 -412 -5 -528 -15 -528 -6 -1 -1 -7
13 -15 21 -12 105 -14 486 -15 378 0 464 -2 473 -14 8 -9 10 -127 9 -417 l-3
-404 -210 -5 c-178 -4 -210 -7 -210 -20 0 -13 69 -15 562 -15 309 0 565 3 569
8 18 18 -20 22 -214 25 -179 2 -209 5 -219 19 -10 13 -13 110 -13 404 0 339 2
390 16 403 14 14 70 16 472 16 251 0 467 3 480 6 l22 6 0 538 0 537 -77 7
c-97 7 -2055 5 -2103 -3z m454 -47 c12 -11 16 -36 16 -96 l0 -80 -66 -69 c-91
-94 -88 -99 71 -99 73 0 135 5 147 11 19 10 16 15 -48 76 l-69 66 -4 89 c-2
60 1 93 9 103 11 13 88 15 547 15 349 0 541 -4 554 -10 16 -9 19 -22 19 -91 0
-44 -4 -88 -9 -97 -5 -9 -35 -43 -66 -75 -31 -31 -55 -63 -52 -70 2 -8 39 -13
123 -15 187 -4 197 4 109 87 -30 29 -59 60 -65 71 -5 10 -10 55 -10 99 0 69 3
82 19 91 12 6 101 10 220 10 170 0 202 -2 216 -16 14 -14 15 -68 13 -504 -2
-344 -6 -492 -14 -500 -12 -12 -2084 -17 -2104 -5 -16 10 -14 1012 3 1018 6 3
105 6 219 6 175 1 209 -1 222 -15z m69 -256 c17 -22 18 -30 7 -43 -15 -18 -70
-20 -93 -2 -15 11 -15 14 5 45 25 40 52 40 81 0z m1154 10 c40 -38 26 -68 -32
-68 -57 0 -71 29 -35 68 26 28 38 28 67 0z"/>
</g>
</svg>
