<?xml version="1.0" standalone="no"?>
<!DOCTYPE svg PUBLIC "-//W3C//DTD SVG 20010904//EN"
 "http://www.w3.org/TR/2001/REC-SVG-20010904/DTD/svg10.dtd">
<svg version="1.0" xmlns="http://www.w3.org/2000/svg"
 width="1000.000000pt" height="1000.000000pt" viewBox="0 0 1000.000000 1000.000000"
 preserveAspectRatio="xMidYMid meet">

<g transform="translate(0.000000,1000.000000) scale(0.100000,-0.100000)"
fill="#000000" stroke="none">
<path d="M4534 5989 c-59 -38 -180 -154 -276 -266 -70 -81 -103 -103 -157
-103 -24 0 -26 4 -27 47 -3 76 -18 83 -189 83 l-144 0 -21 -27 c-15 -20 -21
-38 -18 -64 l3 -37 -70 -4 c-99 -7 -182 -51 -236 -126 l-39 -55 0 -834 0 -834
24 -47 c29 -56 86 -112 143 -141 l42 -21 1443 0 1443 0 52 30 c50 29 94 81
121 143 9 21 12 233 12 865 l0 837 -31 53 c-32 56 -94 104 -159 122 -19 5
-154 10 -300 10 -234 0 -269 2 -296 18 -17 9 -85 77 -153 149 -67 73 -141 148
-164 167 -86 69 -62 66 -530 66 l-423 0 -50 -31z m614 -654 c209 -42 397 -186
492 -375 67 -134 74 -169 74 -330 0 -164 -6 -193 -69 -325 -82 -170 -226 -295
-418 -363 -96 -34 -109 -36 -227 -36 -118 0 -131 2 -227 36 -192 68 -337 194
-418 363 -56 117 -64 149 -71 270 -9 145 7 239 60 349 82 173 176 270 341 351
145 72 302 92 463 60z m749 -42 c30 -36 33 -66 13 -112 -23 -49 -71 -69 -125
-51 -84 28 -87 156 -5 189 38 16 92 4 117 -26z"/>
<path d="M4935 5124 c-11 -2 -40 -10 -65 -16 -69 -17 -162 -72 -222 -132 -192
-193 -194 -498 -5 -690 103 -104 222 -156 357 -156 303 0 537 273 491 573 -28
185 -169 347 -348 402 -51 16 -174 27 -208 19z"/>
</g>
</svg>
