<?xml version="1.0" standalone="no"?>
<!DOCTYPE svg PUBLIC "-//W3C//DTD SVG 20010904//EN"
 "http://www.w3.org/TR/2001/REC-SVG-20010904/DTD/svg10.dtd">
<svg version="1.0" xmlns="http://www.w3.org/2000/svg"
 width="1000.000000pt" height="1000.000000pt" viewBox="0 0 1000.000000 1000.000000"
 preserveAspectRatio="xMidYMid meet">

<g transform="translate(0.000000,1000.000000) scale(0.100000,-0.100000)"
fill="#000000" stroke="none">
<path d="M4325 6419 c-213 -23 -378 -102 -530 -254 -149 -149 -233 -322 -253
-525 -45 -442 229 -836 657 -947 198 -51 426 -26 607 65 334 168 520 508 482
882 -32 321 -247 602 -552 724 -122 49 -278 70 -411 55z m106 -49 c11 -6 30
-28 43 -49 29 -45 80 -187 91 -248 l7 -43 -176 0 -176 0 6 28 c27 128 70 236
114 286 33 37 57 44 91 26z m178 -43 c68 -41 177 -157 219 -236 l34 -62 -122
3 -122 3 -24 94 c-13 52 -38 124 -56 160 -18 36 -34 70 -36 75 -8 16 52 -5
107 -37z m-319 24 c0 -5 -6 -14 -14 -20 -19 -16 -71 -160 -86 -239 l-13 -62
-104 0 -104 0 17 33 c54 104 148 210 238 266 52 32 66 37 66 22z m-207 -80
c-33 -33 -83 -101 -113 -151 l-53 -90 -89 0 c-48 0 -88 3 -88 8 0 16 105 125
163 170 61 46 226 136 235 127 3 -2 -22 -31 -55 -64z m752 -1 c74 -43 155
-110 208 -172 26 -30 47 -58 47 -62 0 -3 -40 -6 -89 -6 l-89 0 -37 68 c-44 79
-124 183 -160 206 -14 9 -25 21 -25 26 0 11 76 -20 145 -60z m-939 -302 c-36
-120 -58 -228 -63 -305 l-6 -93 -125 0 -125 0 7 69 c7 84 37 183 82 279 l35
72 101 0 c99 0 100 0 94 -22z m267 15 c2 -5 -2 -51 -9 -103 -7 -52 -13 -133
-13 -180 -2 -139 8 -130 -144 -130 l-130 0 7 83 c8 91 26 181 57 275 l21 62
103 0 c57 0 106 -3 108 -7z m421 -10 c7 -24 24 -197 30 -310 l6 -93 -222 0
-221 0 6 133 c3 72 11 167 18 210 l11 77 184 0 c165 0 183 -2 188 -17z m320
-60 c13 -43 30 -104 36 -135 13 -67 18 -207 8 -208 -5 0 -70 0 -146 0 l-139 0
-12 163 c-6 89 -15 183 -18 210 l-6 47 126 0 125 0 26 -77z m242 39 c51 -75
120 -327 102 -373 -4 -11 -28 -13 -125 -11 l-120 3 -6 92 c-5 77 -27 185 -63
305 -7 23 -7 23 92 20 l98 -3 22 -33z m-1316 -486 c0 -91 37 -268 75 -358 7
-16 -2 -18 -93 -18 l-101 0 -30 53 c-57 100 -116 322 -99 369 4 10 34 12 127
10 l121 -3 0 -53z m304 22 c3 -17 6 -60 6 -97 0 -65 15 -220 26 -274 l6 -28
-109 3 -108 3 -23 65 c-38 107 -73 316 -60 352 4 10 35 12 131 10 l125 -3 6
-31z m480 -60 c-6 -98 -21 -251 -30 -305 l-6 -33 -183 0 -183 0 -11 78 c-7 42
-15 139 -18 215 l-6 137 221 0 221 0 -5 -92z m342 6 c-7 -89 -42 -240 -69
-306 l-16 -38 -126 0 c-125 0 -125 0 -120 23 9 43 24 184 31 295 l7 112 150 0
150 0 -7 -86z m290 14 c-8 -84 -54 -230 -97 -305 l-30 -53 -101 0 c-91 0 -100
2 -93 18 38 91 75 267 75 358 l0 54 126 0 127 0 -7 -72z m-1272 -484 c28 -47
76 -111 108 -144 32 -32 58 -61 58 -64 0 -11 -114 45 -180 87 -66 43 -210 177
-210 197 0 6 33 10 88 10 l87 -1 49 -85z m206 72 c0 -28 52 -193 76 -244 15
-29 24 -55 22 -58 -10 -10 -127 77 -179 134 -49 52 -119 156 -119 176 0 3 45
6 100 6 79 0 100 -3 100 -14z m385 -18 c-17 -78 -57 -187 -87 -238 -39 -65
-74 -83 -116 -59 -34 18 -94 135 -116 227 -9 37 -19 75 -22 85 -5 16 8 17 171
17 l177 0 -7 -32z m285 23 c0 -5 -22 -42 -48 -82 -59 -90 -153 -178 -226 -213
-55 -26 -81 -33 -74 -18 38 73 70 153 87 217 12 44 24 86 26 93 5 14 235 18
235 3z m230 -1 c0 -18 -133 -146 -198 -189 -59 -39 -191 -105 -198 -98 -2 1
29 37 69 78 40 41 90 107 112 147 l40 72 88 0 c52 0 87 -4 87 -10z"/>
</g>
</svg>
